<?xml version="1.0" encoding="UTF-8"?>
<svg id="Layer_1" data-name="Layer 1" xmlns="http://www.w3.org/2000/svg" viewBox="0 0 141.97 124.48">
  <defs>
    <style>
      .cls-1 {
        fill: #d6cf00;
      }
    </style>
  </defs>
  <g id="cBTC">
    <path class="cls-1" d="M58.76,112.82c-22.84-5.5-39.81-26.05-39.81-50.58,0-28.74,23.3-52.04,52.04-52.04s52.04,23.3,52.04,52.04c0,25.93-18.96,47.42-43.77,51.38v10.86h24.38c2.03,0,3.91-1.08,4.93-2.84l32.65-56.55c1.02-1.76,1.02-3.93,0-5.69L108.56,2.84c-1.02-1.76-2.89-2.84-4.93-2.84H38.34c-2.03,0-3.91,1.08-4.93,2.84L.76,59.39c-1.02,1.76-1.02,3.93,0,5.69l32.65,56.55c1.02,1.76,2.89,2.84,4.93,2.84h20.42v-11.66Z"/>
  </g>
  <path class="cls-1" d="M51.42,97.37l12.45-24.07-29.04-3.67,45.95-42.52h6.75l-13.24,24.67,29.42,3.51-45.68,42.08h-6.61Z"/>
</svg>